<svg width="318" height="31" viewBox="0 0 318 31" fill="none" xmlns="http://www.w3.org/2000/svg">
<path d="M18.9543 1.3733H27.794V18.6574C27.794 20.3713 27.5268 21.9929 26.9922 23.5223C26.4707 25.0384 25.6428 26.37 24.5085 27.517C23.3872 28.6508 22.2072 29.4485 20.9686 29.9099C19.2476 30.5559 17.1811 30.8789 14.7691 30.8789C13.374 30.8789 11.8485 30.78 10.1927 30.5823C8.54992 30.3845 7.17441 29.9956 6.06617 29.4155C4.95794 28.8222 3.94098 27.985 3.01528 26.904C2.10262 25.8229 1.47679 24.7088 1.1378 23.5618C0.590205 21.7161 0.316406 20.0813 0.316406 18.6574V1.3733H9.15619V19.0727C9.15619 20.6548 9.58644 21.8941 10.447 22.7906C11.3205 23.6739 12.5265 24.1156 14.065 24.1156C15.5905 24.1156 16.7834 23.6805 17.6439 22.8103C18.5175 21.927 18.9543 20.6811 18.9543 19.0727V1.3733Z" fill="black"/>
<path d="M33.622 1.3733H48.3485C51.5558 1.3733 53.9548 2.14456 55.5455 3.68708C57.1492 5.2296 57.951 7.42472 57.951 10.2724C57.951 13.1993 57.0774 15.4867 55.3303 17.1347C53.5963 18.7827 50.9431 19.6067 47.3706 19.6067H42.5205V30.3647H33.622V1.3733ZM42.5205 13.7332H44.6913C46.3993 13.7332 47.5988 13.4366 48.2898 12.8433C48.9808 12.2368 49.3263 11.4656 49.3263 10.5295C49.3263 9.61984 49.0265 8.84858 48.4267 8.21576C47.827 7.58293 46.6992 7.26651 45.0433 7.26651H42.5205V13.7332Z" fill="black"/>
<path d="M77.0191 19.8637V13.8321H90.709V26.192C88.0884 27.9982 85.7676 29.2309 83.7467 29.8901C81.7389 30.5361 79.3529 30.8591 76.5888 30.8591C73.1859 30.8591 70.4088 30.2724 68.2575 29.0991C66.1193 27.9257 64.457 26.1788 63.2705 23.8585C62.0971 21.5381 61.5104 18.875 61.5104 15.869C61.5104 12.7049 62.1558 9.95603 63.4465 7.62248C64.7373 5.27574 66.6278 3.49591 69.1181 2.28299C71.0607 1.34694 73.6748 0.878906 76.9604 0.878906C80.1287 0.878906 82.4951 1.16895 84.0596 1.74904C85.6372 2.32914 86.941 3.23224 87.971 4.45834C89.0141 5.67126 89.7964 7.21378 90.3179 9.08589L81.7715 10.6284C81.4194 9.53415 80.8197 8.69697 79.9722 8.11688C79.1378 7.53678 78.0687 7.24674 76.7649 7.24674C74.8222 7.24674 73.2707 7.9323 72.1103 9.30343C70.9629 10.6614 70.3893 12.8169 70.3893 15.7701C70.3893 18.9079 70.9695 21.1492 72.1298 22.4939C73.3033 23.8387 74.933 24.5111 77.0191 24.5111C78.01 24.5111 78.9552 24.3661 79.8549 24.076C80.7545 23.786 81.7845 23.2916 82.9449 22.5928V19.8637H77.0191Z" fill="black"/>
<path d="M96.0872 30.3647V1.3733H110.853C113.591 1.3733 115.683 1.61061 117.131 2.08523C118.578 2.55986 119.745 3.44318 120.631 4.7352C121.518 6.01404 121.961 7.57634 121.961 9.42208C121.961 11.0305 121.622 12.4214 120.944 13.5948C120.266 14.755 119.334 15.6976 118.148 16.4227C117.391 16.8842 116.355 17.2665 115.038 17.5697C116.094 17.9257 116.863 18.2817 117.346 18.6376C117.672 18.875 118.141 19.3825 118.754 20.1604C119.38 20.9382 119.797 21.5381 120.005 21.96L124.288 30.3647H114.275L109.542 21.5051C108.943 20.3581 108.408 19.6133 107.939 19.2705C107.3 18.8222 106.576 18.5981 105.768 18.5981H104.986V30.3647H96.0872ZM104.986 13.1202H108.721C109.125 13.1202 109.908 12.9883 111.068 12.7247C111.655 12.606 112.131 12.3028 112.496 11.815C112.874 11.3272 113.063 10.7668 113.063 10.134C113.063 9.19796 112.769 8.47943 112.183 7.97844C111.596 7.47746 110.494 7.22696 108.878 7.22696H104.986V13.1202Z" fill="black"/>
<path d="M127.124 1.3733H150.866V7.56315H136.003V12.1709H149.791V18.0839H136.003V23.7991H151.297V30.3647H127.124V1.3733Z" fill="black"/>
<path d="M173.729 25.579H163.637L162.249 30.3647H153.194L163.97 1.3733H173.631L184.407 30.3647H175.137L173.729 25.579ZM171.871 19.31L168.702 8.88814L165.554 19.31H171.871Z" fill="black"/>
<path d="M182.471 1.3733H209.401V8.53217H200.365V30.3647H191.506V8.53217H182.471V1.3733Z" fill="black"/>
<path d="M206.78 22.2962H215.287V30.3647H206.78V22.2962Z" fill="black"/>
<path d="M239.714 18.519L247.478 20.8921C246.957 23.0938 246.135 24.933 245.014 26.4096C243.893 27.8862 242.498 29.0002 240.829 29.7517C239.173 30.5032 237.061 30.8789 234.492 30.8789C231.376 30.8789 228.827 30.4241 226.846 29.5144C224.877 28.5915 223.175 26.9765 221.741 24.6693C220.307 22.3621 219.59 19.4089 219.59 15.8097C219.59 11.0107 220.848 7.32584 223.364 4.75498C225.894 2.17093 229.466 0.878906 234.082 0.878906C237.693 0.878906 240.529 1.61721 242.589 3.0938C244.662 4.5704 246.201 6.83804 247.204 9.8967L239.382 11.6568C239.108 10.7734 238.821 10.1274 238.521 9.71872C238.026 9.03316 237.419 8.5058 236.702 8.13665C235.985 7.7675 235.183 7.58293 234.297 7.58293C232.289 7.58293 230.75 8.40033 229.681 10.0351C228.873 11.2481 228.469 13.1531 228.469 15.7504C228.469 18.9672 228.951 21.1755 229.916 22.3753C230.881 23.5618 232.237 24.1551 233.984 24.1551C235.679 24.1551 236.957 23.6739 237.817 22.7115C238.691 21.749 239.323 20.3515 239.714 18.519Z" fill="black"/>
<path d="M250.686 15.8888C250.686 11.1558 251.989 7.47086 254.597 4.83408C257.205 2.1973 260.836 0.878906 265.49 0.878906C270.262 0.878906 273.939 2.17752 276.52 4.77475C279.102 7.3588 280.393 10.9844 280.393 15.6515C280.393 19.0398 279.826 21.8216 278.691 23.9969C277.57 26.1591 275.94 27.8466 273.802 29.0595C271.677 30.2593 269.024 30.8591 265.842 30.8591C262.609 30.8591 259.93 30.3384 257.804 29.2968C255.692 28.2553 253.978 26.6073 252.661 24.3529C251.344 22.0984 250.686 19.2771 250.686 15.8888ZM259.545 15.9283C259.545 18.8552 260.079 20.958 261.149 22.2368C262.231 23.5157 263.698 24.1551 265.549 24.1551C267.452 24.1551 268.926 23.5289 269.969 22.2764C271.012 21.0239 271.533 18.7761 271.533 15.5328C271.533 12.8038 270.986 10.813 269.891 9.56051C268.808 8.29486 267.335 7.66203 265.471 7.66203C263.684 7.66203 262.25 8.30145 261.168 9.58029C260.086 10.8591 259.545 12.9751 259.545 15.9283Z" fill="black"/>
<path d="M285.067 1.3733H296.723L301.221 19.0134L305.7 1.3733H317.316V30.3647H310.08V8.25531L304.467 30.3647H297.916L292.323 8.25531V30.3647H285.067V1.3733Z" fill="black"/>
</svg>
